<svg width="64" height="64" viewBox="0 0 64 64" fill="none" xmlns="http://www.w3.org/2000/svg">
<g clip-path="url(#clip0_6_116)">
<rect width="64" height="64" fill="#111827"/>
<circle cx="32" cy="32" r="28" fill="#111827"/>
<path d="M32 4C36.944 4 41.5877 5.28343 45.6191 7.53223L45.5645 25.3418C44.9215 24.927 44.2156 24.6166 43.4482 24.4092C42.7017 24.1811 41.9345 24.0664 41.1465 24.0664C39.5702 24.0664 38.149 24.4399 36.8838 25.1865C35.6187 25.9124 34.6128 26.9087 33.8662 28.1738C33.1405 29.4181 32.7774 30.8178 32.7773 32.373C32.7773 33.9286 33.1403 35.3393 33.8662 36.6045C34.5921 37.8697 35.5778 38.8754 36.8223 39.6221C38.0873 40.3479 39.4869 40.7109 41.0215 40.7109C42.7637 40.7109 44.2986 40.1923 45.626 39.1553V40.4932H49.8262V10.4062C56.0403 15.542 60 23.3087 60 32C60 47.464 47.464 60 32 60C26.7314 60 21.8036 58.5431 17.5947 56.0127V39.4355C18.2377 39.8504 18.933 40.1722 19.6797 40.4004C20.4262 40.6077 21.204 40.7109 22.0127 40.7109C23.589 40.7109 24.9997 40.348 26.2441 39.6221C27.5092 38.8755 28.5151 37.8801 29.2617 36.6357C30.0084 35.3706 30.3818 33.9599 30.3818 32.4043C30.3818 30.8488 30.0084 29.4485 29.2617 28.2041C28.5359 26.9391 27.5509 25.9331 26.3066 25.1865C25.0623 24.4399 23.6724 24.0665 22.1377 24.0664C20.3956 24.0664 18.8606 24.5852 17.5332 25.6221V24.2842H13.333V52.8672C7.60569 47.7402 4 40.2918 4 32C4 16.536 16.536 4 32 4ZM21.4531 27.707C22.3449 27.7071 23.1435 27.9143 23.8486 28.3291C24.5744 28.7439 25.1448 29.3037 25.5596 30.0088C25.9744 30.7139 26.1816 31.5125 26.1816 32.4043C26.1816 33.2961 25.9743 34.0946 25.5596 34.7998C25.1448 35.505 24.5746 36.0657 23.8486 36.4805C23.1435 36.8952 22.3449 37.1025 21.4531 37.1025C20.6859 37.1025 19.9597 36.9678 19.2754 36.6982C18.6117 36.4079 18.051 36.0344 17.5947 35.5781V29.2617C18.0718 28.764 18.6324 28.381 19.2754 28.1113C19.9391 27.8417 20.665 27.707 21.4531 27.707ZM41.7061 27.6758C42.4733 27.6758 43.1889 27.8106 43.8525 28.0801C44.5162 28.3497 45.0874 28.7232 45.5645 29.2002V35.5156C45.0874 36.0134 44.5162 36.3974 43.8525 36.667C43.2097 36.9365 42.494 37.0713 41.7061 37.0713C40.8351 37.0712 40.0364 36.864 39.3105 36.4492C38.5847 36.0344 38.0144 35.4737 37.5996 34.7686C37.1849 34.0634 36.9775 33.2648 36.9775 32.373C36.9776 31.4813 37.1848 30.6826 37.5996 29.9775C38.0144 29.2518 38.5743 28.6919 39.2793 28.2979C40.0051 27.8831 40.8143 27.6758 41.7061 27.6758Z" fill="white"/>
</g>
<defs>
<clipPath id="clip0_6_116">
<rect width="64" height="64" rx="8" fill="white"/>
</clipPath>
</defs>
</svg>
