<svg width="36" height="36" viewBox="0 0 36 36" fill="none" xmlns="http://www.w3.org/2000/svg">
<path d="M18 0C21.1782 0 24.1633 0.82496 26.7549 2.27051L26.7197 13.7197C26.3066 13.4532 25.8534 13.2534 25.3604 13.1201C24.8804 12.9735 24.3865 12.9004 23.8799 12.9004C22.8666 12.9004 21.953 13.1401 21.1396 13.6201C20.3265 14.0868 19.6801 14.7268 19.2002 15.54C18.7335 16.34 18.5 17.2402 18.5 18.2402C18.5 19.2401 18.7336 20.1467 19.2002 20.96C19.6668 21.7732 20.2997 22.4204 21.0996 22.9004C21.9129 23.367 22.8132 23.5996 23.7998 23.5996C24.9198 23.5996 25.9064 23.2663 26.7598 22.5996V23.46H29.46V4.11914C33.4544 7.42068 36 12.413 36 18C36 27.9411 27.9411 36 18 36C14.6134 36 11.4458 35.0638 8.74023 33.4375V22.7803C9.15349 23.0469 9.60018 23.2538 10.0801 23.4004C10.56 23.5337 11.0601 23.5996 11.5801 23.5996C12.5932 23.5996 13.4999 23.3669 14.2998 22.9004C15.113 22.4204 15.7603 21.7803 16.2402 20.9805C16.7202 20.1671 16.96 19.2598 16.96 18.2598C16.9599 17.2599 16.7202 16.3595 16.2402 15.5596C15.7736 14.7463 15.1398 14.1001 14.3398 13.6201C13.5399 13.1402 12.6467 12.9004 11.6602 12.9004C10.5402 12.9004 9.55353 13.2337 8.7002 13.9004V13.04H6V31.4141C2.31825 28.1182 0 23.3304 0 18C0 8.05887 8.05887 0 18 0ZM11.2197 15.2402C11.7929 15.2402 12.3065 15.3731 12.7598 15.6396C13.2264 15.9063 13.5937 16.2664 13.8604 16.7197C14.127 17.173 14.2597 17.6865 14.2598 18.2598C14.2598 18.833 14.1269 19.3465 13.8604 19.7998C13.5937 20.2531 13.2264 20.6132 12.7598 20.8799C12.3065 21.1465 11.793 21.2803 11.2197 21.2803C10.7265 21.2802 10.2602 21.1928 9.82031 21.0195C9.39365 20.8329 9.03357 20.5931 8.74023 20.2998V16.2402C9.0469 15.9202 9.40698 15.6733 9.82031 15.5C10.2468 15.3268 10.7133 15.2403 11.2197 15.2402ZM24.2402 15.2197C24.7335 15.2198 25.1935 15.3072 25.6201 15.4805C26.0467 15.6538 26.4131 15.8936 26.7197 16.2002V20.2598C26.4131 20.5797 26.0467 20.8267 25.6201 21C25.2068 21.1733 24.7468 21.2597 24.2402 21.2598C23.6804 21.2598 23.1668 21.1269 22.7002 20.8604C22.2335 20.5937 21.8663 20.2336 21.5996 19.7803C21.333 19.327 21.2002 18.8135 21.2002 18.2402C21.2002 17.667 21.3331 17.1535 21.5996 16.7002C21.8662 16.2336 22.2265 15.8734 22.6797 15.6201C23.1464 15.3535 23.6669 15.2197 24.2402 15.2197Z" fill="#111827"/>
</svg>
